<?xml version="1.0"?>
<svg width="640" height="480" xmlns="http://www.w3.org/2000/svg" xmlns:svg="http://www.w3.org/2000/svg">
 <!-- Created with SVG-edit - http://svg-edit.googlecode.com/ -->
 <g>
  <title>Layer 1</title>
  <path d="m189,165c0,-4.628174 0,-5.305328 0,-6.020493c0,-0.742172 0,-1.500336 0,-2.263504c0,-0.757172 0,-1.49733 0,-3.509674c0,-0.588989 0,-1.151993 0,-2.248001c0,-0.556992 0,-1.748993 0,-3.125c0,-0.783157 0,-1.625336 0,-2.515488c0,-0.92717 0,-1.880341 0,-2.848511c0,-0.972168 0,-1.937332 0,-3.802658c0,-0.882843 0,-1.742676 0,-2.596512c0,-0.864822 0,-1.75766 0,-2.695496c0,-0.999832 0.000153,-2.078659 0,-4.541336c-0.000092,-1.412994 0,-2.943993 -0.004501,-4.580994c-0.004761,-1.73101 -0.013641,-3.544022 -0.031494,-5.427002c-0.018402,-1.941032 -0.035919,-3.928291 -0.130676,-7.991997c-0.047882,-2.053505 -0.11496,-4.10675 -0.185989,-6.150002c-0.070343,-2.023415 -0.147369,-4.01667 -0.222,-5.970001c-0.072708,-1.903336 -0.151276,-3.746346 -0.258667,-7.213333c-0.049774,-1.606697 -0.084412,-3.134613 -0.109512,-4.594498c-0.024109,-1.402786 -0.038269,-2.759651 -0.046494,-4.081505c-0.008072,-1.297821 -0.009995,-2.582664 -0.010666,-5.157333c-0.000336,-1.30883 0,-2.630661 0,-3.958496c0,-1.326836 0,-2.645668 0,-3.949501c0,-1.28183 0,-2.534668 0,-4.925331c0,-1.126003 0,-2.208004 0,-3.252003c0,-1.012001 0,-1.998001 0,-2.964001c0,-0.952 0,-1.896 0,-3.784c0,-0.95433 0,-1.914665 0,-2.876999c0,-0.960335 0,-1.914665 0,-2.859001c0,-0.930332 0,-1.842667 0,-3.597332c0,-0.835499 0,-1.644001 0,-2.428501c0,-0.7635 0,-1.508999 0,-2.239498c0,-0.718502 0,-1.428001 0,-2.832001c0,-0.699833 0,-1.398666 0,-2.095501c0,-0.693832 0,-1.383667 0,-2.068501c0,-0.678833 0,-1.350666 0,-2.669333c0,-0.644499 0,-1.275999 0,-1.891499c0,-0.5965 0,-1.171001 0,-1.720501c0,-0.5215 -0.000381,-1.011999 0,-1.888c0.000168,-0.379499 -0.001572,-0.716124 0.009003,-1.006498c0.008804,-0.241655 0.013962,-0.436638 0.063004,-0.5655c0.031097,-0.081713 0.119781,-0.110542 0.261322,0.071999c0.131989,0.170231 0.245255,0.438772 0.399002,0.765001c0.185471,0.393541 0.392456,0.860092 0.632996,1.394999c0.27211,0.605108 0.571487,1.283352 1.301346,2.84c0.414917,0.884926 0.869888,1.825033 1.352997,2.811001c0.500809,1.022074 1.020004,2.065008 1.550995,3.116999c0.531006,1.052013 1.055908,2.092239 2.096008,4.072002c0.488861,0.930504 0.973663,1.832344 1.481995,2.719498c0.520859,0.909023 1.092331,1.848789 1.733994,2.836502c0.698944,1.07589 1.488617,2.250977 3.450668,4.944c1.154709,1.584908 2.449875,3.29166 3.844498,5.112c1.467804,1.915863 3.005569,3.891232 4.591507,5.903999c1.603683,2.035278 3.209198,4.066929 6.397339,7.983997c1.518265,1.865395 2.994827,3.643425 4.416,5.344505c1.36026,1.628174 2.667191,3.176445 3.911987,4.651497c1.182541,1.401283 2.311188,2.721146 4.338669,5.17067c0.920654,1.112297 1.771683,2.166115 2.566498,3.161995c0.750397,0.940231 1.454773,1.837669 2.125504,2.694c0.643585,0.821678 1.259079,1.620979 2.47467,3.144005c0.597107,0.748123 1.200928,1.485664 1.804504,2.223c0.605743,0.739998 1.217926,1.484032 1.831497,2.240997c0.622803,0.768349 1.260361,1.548805 2.53067,3.202667c0.660767,0.860275 1.322418,1.755554 1.994995,2.676003c0.687485,0.940857 1.380951,1.906662 2.085007,2.891998c0.715958,1.001976 1.437866,2.022842 2.919998,4.098663c0.753586,1.055443 1.516968,2.117599 2.285995,3.186005c0.772293,1.072929 1.547516,2.147194 2.322006,3.222c0.772842,1.072525 1.544144,2.139328 3.05867,4.258667c0.746185,1.044182 1.481415,2.079414 2.2005,3.109497c0.711548,1.019272 1.408295,2.033226 2.083496,3.046501c0.668427,1.003113 1.331573,1.996552 2.549316,4.010666c0.600067,0.992477 1.162323,1.986588 1.701019,2.964005c0.522491,0.948029 1.010193,1.867828 1.46698,2.748001c0.430389,0.829269 0.822418,1.604797 1.498688,2.954666c0.280945,0.56076 0.523987,1.047989 0.73349,1.466995c0.178497,0.356995 0.32901,0.658005 0.454498,0.908997c0.103516,0.207001 0.187988,0.376007 0.312012,0.624008c0.045166,0.090332 0.081329,0.162659 0.109497,0.218994c0.021149,0.042328 0.036285,0.072678 0.046478,0.093002c0.006195,0.012329 0.007721,0.020859 0.010681,0.021332c0.000458,0.000076 0.002655,-0.00267 0.009003,-0.009003c0.012329,-0.012329 0.032654,-0.032669 0.062988,-0.063004c0.042328,-0.042328 0.098785,-0.098526 0.261353,-0.261322c0.111084,-0.111252 0.248901,-0.249786 0.416992,-0.42601c0.20816,-0.218231 0.45932,-0.489456 0.759003,-0.821991c0.358582,-0.397903 0.780243,-0.870987 1.824005,-2.085342c0.64212,-0.747086 1.356842,-1.593948 2.146484,-2.531998c0.862457,-1.024536 1.791443,-2.134308 2.785492,-3.32399c1.056976,-1.264969 2.172028,-2.602692 4.568024,-5.477341c1.275818,-1.530678 2.605316,-3.126457 3.997498,-4.788002c1.454407,-1.735832 2.979187,-3.547432 4.582489,-5.435997c1.678253,-1.976868 3.436401,-4.046204 7.253326,-8.442665c2.042053,-2.352097 4.17749,-4.780899 6.382507,-7.278c2.254913,-2.553619 4.553223,-5.140259 6.877502,-7.746002c2.330688,-2.61293 4.656433,-5.213867 9.23999,-10.309334c2.222778,-2.471046 4.39505,-4.876862 6.511505,-7.216499c2.055603,-2.272339 4.050201,-4.471733 5.980499,-6.595497c1.860718,-2.047211 3.649963,-4.013855 7.007996,-7.688004c1.559387,-1.706196 3.041779,-3.323494 4.449005,-4.854c1.331482,-1.448116 2.591492,-2.813786 3.78302,-4.098c1.121185,-1.208385 2.173492,-2.343536 4.101318,-4.381332c0.867859,-0.917366 1.679138,-1.76347 2.434509,-2.539501c0.694153,-0.713135 1.333435,-1.359287 1.921478,-1.936501c0.528595,-0.518833 0.995239,-0.985302 1.810669,-1.690666c0.320282,-0.277046 0.599121,-0.494827 0.843018,-0.647999c0.194977,-0.122444 0.362427,-0.203934 0.501007,-0.216c0.109375,-0.009521 0.221863,0.025658 0.322662,0.19733c0.061523,0.104809 0.087524,0.261909 0.109497,0.466503c0.029449,0.274063 0.03894,0.637615 0.046478,1.105499c0.009491,0.589787 0.009888,1.318665 0.010681,3.261333c0.000519,1.242832 0.000092,2.66267 0.004486,4.246498c0.004822,1.734837 0.013916,3.607685 0.031525,5.605499c0.018585,2.109859 0.037354,4.318893 0.130646,8.981335c0.048615,2.428795 0.115753,4.909416 0.190521,7.433998c0.075836,2.56076 0.161865,5.149399 0.253479,7.758003c0.092041,2.620728 0.189209,5.245384 0.389343,10.474663c0.099091,2.589699 0.199677,5.157295 0.295502,7.701004c0.094849,2.517624 0.186127,5.007248 0.268494,7.466995c0.081268,2.427589 0.163635,4.821022 0.269348,9.498672c0.051483,2.278526 0.084503,4.509293 0.109497,6.683998c0.024231,2.110634 0.038147,4.149323 0.046478,6.108002c0.007965,1.870667 0.01001,3.645325 0.010681,6.874664c0.000305,1.441833 0,2.774673 0,4.009506c0,1.147827 0,2.219666 0,3.226486c0,0.952835 0,1.862671 0,3.597336c0,0.844666 0,1.677338 0,2.496002c0,0.802673 0,1.587341 0,2.352005c0,0.742661 0.000153,1.461334 0,2.818665c-0.000092,0.635498 0.000305,1.244019 -0.004486,1.828506c-0.004608,0.563507 -0.013123,1.1091 -0.031525,1.639496c-0.017975,0.518616 -0.035217,1.029236 -0.130646,2.031998c-0.047668,0.500717 -0.115387,1.000275 -0.186005,1.5c-0.070709,0.500275 -0.148315,0.999847 -0.222015,1.5c-0.073639,0.499863 -0.154419,0.99855 -0.258667,2c-0.052063,0.500031 -0.084869,1.00528 -0.1185,1.518005c-0.034393,0.524597 -0.06601,1.065552 -0.109497,1.625992c-0.04538,0.584915 -0.089447,1.199768 -0.272003,2.522675c-0.099426,0.720459 -0.232697,1.472595 -0.376495,2.252991c-0.148102,0.80365 -0.310425,1.622131 -0.475494,2.451004c-0.165924,0.833115 -0.339722,1.662521 -0.64801,3.296005c-0.148865,0.788788 -0.282318,1.555832 -0.409485,2.296494c-0.122131,0.711334 -0.235046,1.391235 -0.346497,2.035507c-0.10495,0.606705 -0.19397,1.175232 -0.410675,2.167999c-0.093231,0.427155 -0.19458,0.806519 -0.295502,1.14299c-0.09021,0.300781 -0.182007,0.565948 -0.268494,0.80101c-0.077362,0.210205 -0.158478,0.394577 -0.269348,0.722656c-0.048615,0.143875 -0.083832,0.279465 -0.109497,0.404999c-0.023438,0.114563 -0.037933,0.219849 -0.046478,0.315002c-0.007629,0.084885 -0.01001,0.160004 -0.010681,0.279999c-0.000244,0.045166 0,0.081345 0,0.109512c0,0.021164 0,0.036331 0,0.046494c0,0.006165 0,0.009338 0,0.010666c0,0 0,0 0,0c0,0 0,0 0,0c0,0 0,0 0,0c0,0 0,0 0,0c0,0 0,0 0,0c0,0 0,0 0,0c0,0 0,0 0,0c0,0 0,0 0,0c0,0 0,0 0,0c0,0 0,0 0,0c0,0 0,0 0,0c0,0 0,0 0,0c0,0.000336 0,0.00267 0,0.009003c0,0.012329 0,0.032669 0,0.063004c0,0.042328 0,0.098663 0,0.261322c0,0.115509 0,0.284012 0,0.538498c0,0.373505 0,0.899002 0,1.609512c0,0.928497 -0.000244,2.108002 0,5.35199c0.000183,2.116333 0.000092,4.53067 0.009003,7.19101c0.009583,2.85434 0.026917,5.850723 0.062988,8.936996c0.03653,3.124405 0.061859,6.235779 0.261353,12.205338c0.09256,2.769958 0.227356,5.395264 0.380981,7.901993c0.148071,2.415939 0.322815,4.765015 0.507019,7.074005c0.183167,2.2957 0.388885,4.602036 0.778656,9.35733c0.204468,2.494675 0.403046,5.080078 0.613495,7.755005c0.217529,2.765076 0.44397,5.620422 0.694519,8.565002c0.258301,3.035461 0.519257,6.162903 1.191986,12.679993c0.350372,3.394257 0.748016,6.863159 1.194,10.391998c0.452515,3.580566 0.952637,7.194397 1.518005,10.824005c0.567261,3.641846 1.13501,7.286163 2.621338,14.450653c0.732849,3.532471 1.56778,6.995544 2.447998,10.389008c0.864258,3.33194 1.781677,6.575409 2.735992,9.722992c0.928284,3.061707 1.852051,6.023529 3.81601,11.554688c0.921204,2.594421 1.86322,5.053741 2.818481,7.382996c0.913696,2.227905 1.84436,4.337128 2.809509,6.320984c0.924988,1.901306 1.823395,3.729431 3.872009,6.962677c0.970734,1.532043 2.017822,2.949341 3.094482,4.281006c1.053497,1.303009 2.159058,2.527405 3.301514,3.686981c1.134247,1.151245 2.299866,2.26889 4.77066,4.365356c1.251831,1.062195 2.558289,2.095825 3.925507,3.095978c1.396729,1.021759 2.871094,2.013397 4.438507,2.952026c1.619537,0.969849 3.320557,1.957733 7.135986,3.618652c2.035309,0.886017 4.207031,1.663391 6.463501,2.388c2.305054,0.740234 4.674377,1.395203 7.084503,1.955994c2.412659,0.561371 4.825531,1.108063 9.618652,1.656006c2.319733,0.265198 4.606659,0.365509 6.847504,0.345001c2.206696,-0.020203 4.38739,-0.174347 6.532501,-0.464996c2.137482,-0.289612 4.281799,-0.63559 8.453339,-1.880005c2.119202,-0.632172 4.212311,-1.440613 6.286499,-2.350494c2.098694,-0.920624 4.170929,-1.96817 6.205505,-3.133514c2.057251,-1.178314 4.124695,-2.411987 8.007996,-5.349335c1.972504,-1.492004 3.869354,-3.132538 5.696991,-4.891479c1.856323,-1.78653 3.639923,-3.717041 5.319,-5.800507c1.717438,-2.131073 3.447479,-4.369141 6.317352,-9.47467c1.502502,-2.672974 2.801575,-5.545288 4.026001,-8.50351c1.237671,-2.990234 2.342773,-6.047241 3.34198,-9.124481c0.987854,-3.042297 1.913635,-6.045319 3.298676,-11.872009c0.649628,-2.732849 1.157837,-5.377838 1.576508,-7.936493c0.405853,-2.480469 0.717316,-4.915283 0.955505,-7.315521c0.235962,-2.377686 0.421844,-4.756927 0.634644,-9.581329c0.10907,-2.472382 0.16983,-4.985168 0.219025,-7.525482c0.04953,-2.557037 0.07663,-5.1203 0.092987,-7.678497c0.016266,-2.542145 0.019989,-5.057343 0.021332,-9.962677c0.000641,-2.368835 0,-4.670654 0,-6.898499c0,-2.14682 0,-4.205658 0,-6.169495c0,-1.861847 0,-3.614685 0,-6.76535c0,-1.385986 0,-2.64798 0,-3.791992c0,-1.031982 0,-1.958008 0,-2.783997c0,-0.731995 -0.000183,-1.376007 0,-2.423996c0.000092,-0.416 -0.000854,-0.768036 0.004486,-1.062012c0.004395,-0.242035 0.010529,-0.43866 0.031525,-0.593994c0.016571,-0.122696 0.028168,-0.232224 0.130646,-0.343994c0.048218,-0.052582 0.134949,-0.079681 0.240021,-0.059998c0.151276,0.028351 0.348022,0.13588 0.599976,0.299988c0.33313,0.21701 0.744629,0.519699 1.82666,1.426666c0.711182,0.596146 1.516296,1.312454 2.408997,2.145004c0.993591,0.926651 2.060303,1.96936 3.183044,3.13501c1.20752,1.253662 2.493958,2.599091 5.074646,5.720001c1.389893,1.680878 2.761902,3.48877 4.140015,5.377502c1.408997,1.931122 2.791687,3.924988 4.140015,5.962494c1.348389,2.037598 2.679321,4.06897 5.053284,8.160004c1.141052,1.9664 2.184143,3.917755 3.148499,5.846985c0.943359,1.887238 1.810486,3.76886 2.599548,5.649017c0.779846,1.858154 1.531006,3.715088 2.751953,7.503998c0.612305,1.900055 1.14093,3.835663 1.633545,5.789978c0.495483,1.96579 0.941467,3.957428 1.354492,5.970001c0.416077,2.027466 0.809265,4.076355 1.511963,8.240021c0.355835,2.108368 0.686523,4.240356 1.005005,6.394501c0.321594,2.175171 0.626587,4.375458 0.915039,6.601501c0.291626,2.250305 0.579163,4.527222 1.079956,9.170654c0.254578,2.360626 0.483765,4.73288 0.7005,7.095001c0.213867,2.331207 0.408142,4.612976 0.583496,6.825012c0.168152,2.121307 0.325867,4.132355 0.549377,7.746643c0.096924,1.567444 0.16748,2.982452 0.218994,4.261505c0.046692,1.159668 0.076111,2.217621 0.092957,3.190491c0.015625,0.904785 0.02002,1.758667 0.021362,3.381348c0.000671,0.799347 0,1.594666 0,2.381989c0,0.77533 0,1.534668 0,2.274017c0,0.715332 0,1.402649 0,2.677338c0,0.580475 0,1.123993 0,1.633484c0,0.478516 0,0.929016 0,1.354492c0,0.403503 0,0.788025 0,1.512024c0,0.344818 0,0.67865 0,1.000488c0,0.308838 0,0.603668 0,0.883514c0,0.263824 0.000183,0.510651 0,0.94931c-0.000122,0.190186 0.000549,0.36142 -0.004517,0.514496c-0.004517,0.13623 -0.011841,0.25708 -0.031494,0.361511c-0.017273,0.09198 -0.032776,0.182251 -0.130676,0.29068c-0.047546,0.052673 -0.116272,0.085022 -0.185974,0.113983c-0.071716,0.029816 -0.147766,0.051453 -0.221985,0.078003c-0.07312,0.026154 -0.154358,0.042786 -0.258667,0.141327c-0.05304,0.05014 -0.088501,0.135925 -0.114014,0.25351c-0.035522,0.163605 -0.054749,0.392181 -0.078003,0.694489c-0.030029,0.389984 -0.057922,0.881409 -0.141357,2.218689c-0.054138,0.86734 -0.118103,1.858582 -0.185974,2.957977c-0.073547,1.191284 -0.149475,2.458557 -0.221985,3.786011c-0.07489,1.371216 -0.154236,2.770142 -0.258667,5.589325c-0.051514,1.390472 -0.084778,2.765289 -0.109497,4.128021c-0.024597,1.354584 -0.038391,2.705322 -0.046509,4.056c-0.008179,1.354645 -0.009827,2.717316 -0.010681,5.482666c-0.000427,1.408325 0.000183,2.82666 -0.004517,4.244995c-0.004639,1.408325 -0.013,2.796692 -0.031494,4.154999c-0.017944,1.31839 -0.029602,2.587433 -0.130676,4.933319c-0.045715,1.06076 -0.112122,2.04306 -0.185974,2.949005c-0.067932,0.832733 -0.144409,1.593018 -0.221985,2.28302c-0.070007,0.62262 -0.143372,1.178406 -0.258667,2.101318c-0.046326,0.370911 -0.081482,0.688324 -0.11853,0.957001c-0.031372,0.227295 -0.061462,0.420074 -0.109497,0.57901c-0.042053,0.13913 -0.091492,0.270111 -0.271973,0.463989c-0.101318,0.108826 -0.236755,0.204132 -0.385498,0.304504c-0.161865,0.109253 -0.343201,0.217133 -0.538513,0.331482c-0.208374,0.122009 -0.432495,0.246246 -0.909363,0.53067c-0.25647,0.152985 -0.522461,0.319916 -0.808472,0.486023c-0.301941,0.175385 -0.626099,0.353363 -0.979492,0.521973c-0.375488,0.179138 -0.779114,0.368561 -1.712036,0.658691c-0.515015,0.160156 -1.074463,0.287567 -1.666504,0.404999c-0.619934,0.122955 -1.270142,0.226257 -1.945496,0.315002c-0.695679,0.091431 -1.410767,0.175751 -2.888,0.279999c-0.754089,0.053223 -1.517212,0.0849 -2.28595,0.109497c-0.772583,0.024719 -1.547363,0.0383 -2.322021,0.046478c-0.772705,0.008179 -1.541321,0.01001 -3.058655,0.010681c-0.745178,0.000336 -1.481323,0 -2.209534,0c-0.72113,0 -1.43634,0 -2.146484,0c-0.706177,0 -1.409363,0.000336 -2.810669,0c-0.699158,-0.000183 -1.393372,0.000488 -2.077515,-0.009003c-0.669189,-0.009277 -1.318665,-0.025604 -1.942505,-0.062988c-0.594604,-0.035614 -1.161926,-0.052917 -2.146667,-0.261353c-0.430847,-0.091187 -0.820435,-0.226837 -1.156494,-0.416992c-0.330383,-0.18692 -0.629456,-0.44455 -0.895508,-0.759003c-0.290344,-0.34314 -0.569946,-0.76297 -1.114624,-1.824005c-0.324585,-0.632233 -0.644348,-1.35434 -0.981018,-2.151001c-0.365295,-0.864441 -0.734619,-1.804626 -1.106995,-2.816986c-0.395386,-1.07486 -0.805237,-2.213776 -1.578674,-4.698669c-0.412231,-1.324432 -0.803894,-2.704529 -1.186493,-4.125c-0.389526,-1.446198 -0.759521,-2.914642 -1.105499,-4.394989c-0.345032,-1.476379 -0.684418,-2.940582 -1.208008,-5.813354c-0.250885,-1.376587 -0.451202,-2.713501 -0.623993,-4.001984c-0.165527,-1.234283 -0.298676,-2.414063 -0.40802,-3.533997c-0.102997,-1.054779 -0.187683,-2.042053 -0.301331,-3.797333c-0.049225,-0.760254 -0.082825,-1.444 -0.113983,-2.053497c-0.027527,-0.538513 -0.049225,-1.009247 -0.078003,-1.41452c-0.024414,-0.343719 -0.014709,-0.639557 -0.141327,-1.031982c-0.041687,-0.129211 -0.128296,-0.216217 -0.213013,-0.193512c-0.124725,0.033447 -0.253326,0.208801 -0.411011,0.445496c-0.210602,0.316162 -0.448822,0.739441 -1.042664,1.914673c-0.38092,0.753815 -0.792633,1.617828 -1.234497,2.57251c-0.474487,1.025208 -0.959991,2.112 -1.441498,3.247498c-0.491669,1.159485 -0.993469,2.326447 -1.824005,4.679993c-0.398376,1.128937 -0.73526,2.237823 -1.028992,3.319489c-0.284576,1.047943 -0.523987,2.074036 -0.722992,3.076508c-0.193359,0.97403 -0.366302,1.925934 -0.581329,3.77066c-0.103668,0.889374 -0.169556,1.766235 -0.219025,2.632507c-0.049133,0.860474 -0.076721,1.721588 -0.092987,2.587494c-0.016449,0.875793 -0.019989,1.766663 -0.021332,3.613342c-0.000702,0.963989 0,1.951996 0,2.958008c0,1.018005 0,2.041992 0,3.065979c0,1.018005 0,2.024017 0,3.976013c0,0.935181 0,1.841339 0,2.719513c0,0.851166 0,1.676331 0,2.476501c0,0.776154 0,1.529327 0,2.970642c0,0.689514 0,1.356018 0,1.996521c0,0.611481 0,1.190979 0,1.735504c0,0.5065 0.000183,0.971985 0,1.767975c-0.000092,0.325684 0.000763,0.605377 -0.004486,0.843018c-0.004425,0.199707 -0.010986,0.366028 -0.031525,0.501007c-0.016785,0.110413 -0.03064,0.21167 -0.130646,0.322662c-0.047913,0.053162 -0.123779,0.086243 -0.213013,0.10498c-0.108307,0.022736 -0.245483,0.023743 -0.411011,0.015015c-0.199921,-0.010529 -0.438049,-0.034637 -1.042664,-0.119995c-0.375488,-0.053009 -0.802216,-0.120636 -1.274994,-0.231018c-0.52771,-0.123199 -1.106018,-0.294739 -1.725006,-0.536987c-0.682068,-0.266937 -1.433502,-0.579346 -3,-1.565338c-0.89386,-0.562622 -1.799286,-1.255524 -2.738983,-2.014496c-0.986267,-0.79657 -1.977722,-1.663818 -2.972992,-2.581512c-1.014313,-0.935211 -2.029083,-1.892975 -3.954681,-3.903992c-0.946991,-0.988983 -1.849884,-1.993927 -2.719513,-3.004486c-0.85965,-0.998962 -1.685303,-2.009369 -2.476501,-3.031525c-0.785095,-1.014282 -1.557343,-2.030182 -2.970642,-4.130646c-0.703583,-1.045685 -1.369019,-2.112335 -1.996521,-3.195007c-0.624512,-1.077545 -1.208435,-2.17157 -1.735504,-3.285004c-0.523987,-1.106873 -1.041595,-2.216858 -1.767975,-4.519989c-0.360565,-1.14325 -0.622528,-2.305939 -0.843018,-3.459015c-0.216553,-1.132538 -0.376221,-2.248016 -0.501007,-3.333008c-0.120148,-1.044495 -0.20929,-2.044525 -0.322662,-3.874664c-0.050507,-0.815338 -0.083862,-1.565247 -0.109497,-2.252991c-0.023468,-0.629578 -0.037994,-1.205292 -0.046478,-1.730988c-0.007721,-0.479645 -0.01001,-0.917358 -0.010681,-1.682678c-0.000305,-0.335175 0,-0.641327 0,-0.919495c0,-0.25116 0,-0.476349 0,-0.676514c0,-0.176147 0.000458,-0.329315 0,-0.570648c-0.000183,-0.090332 0.002136,-0.163452 -0.009003,-0.219025c-0.008667,-0.043213 -0.029907,-0.077545 -0.062988,-0.092987c-0.039948,-0.018646 -0.098633,-0.020508 -0.261353,-0.021332c-0.111481,-0.00058 -0.252258,0.001953 -0.430481,0.018005c-0.225922,0.020355 -0.507813,0.060944 -0.853516,0.126007c-0.421539,0.079315 -0.927277,0.18454 -2.216003,0.522644c-0.806793,0.21167 -1.717804,0.475647 -2.735992,0.770996c-1.123199,0.325806 -2.347229,0.687714 -3.671997,1.077026c-1.422546,0.41806 -2.93927,0.8685 -6.258667,1.818665c-1.791077,0.512695 -3.655853,1.036011 -5.578491,1.558502c-1.95871,0.532288 -3.940094,1.054657 -5.929504,1.5495c-1.972961,0.490753 -3.911346,0.983368 -7.658661,1.725311c-1.760773,0.348633 -3.478729,0.624817 -5.179504,0.843018c-1.708771,0.219238 -3.46524,0.381287 -5.296509,0.501007c-1.93512,0.126526 -4.008789,0.22052 -8.690674,0.322662c-2.658417,0.058014 -5.509277,0.085327 -8.513977,0.100494c-3.120636,0.015747 -6.319397,0.011658 -9.558014,-0.01651c-3.240753,-0.028168 -6.446411,-0.053162 -12.594666,-0.250671c-2.876068,-0.092407 -5.604462,-0.226471 -8.188507,-0.371979c-2.443939,-0.137634 -4.749176,-0.291962 -6.919495,-0.444c-2.038696,-0.142822 -3.94693,-0.298828 -7.391998,-0.517334c-1.541077,-0.097748 -2.971832,-0.167664 -4.300507,-0.223511c-1.235352,-0.05191 -2.386993,-0.088928 -3.463501,-0.124512c-1.010498,-0.033417 -1.964813,-0.051971 -3.735992,-0.151978c-0.834961,-0.04715 -1.636353,-0.113434 -2.401489,-0.186005c-0.726868,-0.068939 -1.411224,-0.145416 -2.050507,-0.222015c-0.591705,-0.070892 -1.131653,-0.144165 -2.048004,-0.258667c-0.370667,-0.046326 -0.686523,-0.082672 -0.952515,-0.109497c-0.220703,-0.022247 -0.40155,-0.037506 -0.547485,-0.046478c-0.115784,-0.007141 -0.206665,-0.01001 -0.333344,-0.010681c-0.045166,-0.000244 -0.081329,0 -0.109497,0c-0.021149,0 -0.036316,0 -0.046478,0c-0.006195,0 -0.009735,-0.000946 -0.010681,0c-0.000244,0.000244 0,0.002655 0,0.009003c0,0.012329 0,0.032654 0,0.062988c0,0.042328 0,0.098663 0,0.261353c0,0.111481 0,0.251984 0,0.430481c0,0.225494 0,0.507019 0,0.853516c0,0.420502 0.000122,0.923981 0,2.216003c-0.000092,0.803314 -0.000061,1.706665 -0.004486,2.699982c-0.004791,1.073334 -0.013794,2.216705 -0.031525,3.420013c-0.018463,1.253357 -0.035522,2.547119 -0.130646,5.213318c-0.048309,1.354126 -0.114319,2.711182 -0.20401,4.063507c-0.08902,1.342407 -0.19986,2.667084 -0.347992,3.964508c-0.144806,1.268311 -0.277008,2.507324 -0.781342,4.805328c-0.23642,1.077209 -0.537994,2.092316 -0.889496,3.043488c-0.338867,0.917053 -0.733276,1.781616 -1.186493,2.584503c-0.443939,0.786469 -0.91214,1.557098 -2.090668,2.872009c-0.592194,0.660706 -1.26355,1.257629 -1.975525,1.810486c-0.719086,0.55838 -1.491913,1.064392 -2.308472,1.513519c-0.827484,0.455139 -1.687744,0.896393 -3.549347,1.509338c-0.954437,0.31424 -1.956177,0.541595 -2.984985,0.724487c-1.051544,0.186951 -2.138641,0.314056 -3.255005,0.39151c-1.14389,0.079346 -2.321075,0.132721 -4.76001,0.050659c-1.263794,-0.042511 -2.54425,-0.144653 -3.826508,-0.285004c-1.276581,-0.13974 -2.531219,-0.320709 -3.745483,-0.554993c-1.173553,-0.22641 -2.31073,-0.428162 -4.261353,-1.160004c-0.867645,-0.325531 -1.634033,-0.73291 -2.290497,-1.203003c-0.628052,-0.449738 -1.173737,-0.983765 -1.633484,-1.580994c-0.46875,-0.608948 -0.89566,-1.294189 -1.576019,-2.88266c-0.373596,-0.872223 -0.691559,-1.827972 -1.000488,-2.838013c-0.322357,-1.053955 -0.614899,-2.159302 -0.883514,-3.306c-0.27536,-1.175354 -0.542053,-2.378632 -0.94931,-4.855988c-0.20575,-1.251678 -0.369812,-2.512085 -0.505524,-3.772522c-0.134888,-1.252991 -0.236237,-2.49762 -0.298492,-3.727478c-0.061188,-1.208618 -0.117615,-2.394684 -0.029327,-4.666687c0.041992,-1.08075 0.1427,-2.118744 0.266998,-3.110992c0.118896,-0.949158 0.266754,-1.848785 0.429016,-2.696991c0.152863,-0.799133 0.31308,-1.543671 0.637329,-2.858673c0.140839,-0.571198 0.276978,-1.082184 0.404999,-1.534485c0.112335,-0.396942 0.215637,-0.737854 0.315002,-1.021515c0.081421,-0.232452 0.110748,-0.448517 0.279999,-0.610657c0.037048,-0.035492 0.088898,0.003235 0.109497,0.092987c0.033813,0.147308 0.03894,0.365234 0.046478,0.651001c0.009491,0.359619 0.010132,0.797333 0.010681,1.922668c0.000336,0.693176 0,1.465332 -0.004486,2.305511c-0.004761,0.897156 -0.013611,1.840393 -0.031525,2.818481c-0.018341,1.002228 -0.033417,2.018036 -0.130646,4.042664c-0.047546,0.990417 -0.113739,1.960846 -0.20401,2.910004c-0.088531,0.930878 -0.200195,1.84198 -0.347992,2.730011c-0.145142,0.872101 -0.289978,1.733917 -0.781342,3.359985c-0.24115,0.798035 -0.545288,1.569794 -0.880493,2.323517c-0.335571,0.754547 -0.714142,1.494232 -1.123505,2.224487c-0.414246,0.738953 -0.854675,1.478455 -1.829346,2.951996c-0.502472,0.759644 -1.034027,1.52182 -1.608002,2.272522c-0.583344,0.762939 -1.208862,1.513794 -1.895996,2.227478c-0.698303,0.725281 -1.422668,1.469116 -3.162659,2.666687c-0.901459,0.620453 -1.893951,1.140869 -2.915985,1.619995c-1.026367,0.48114 -2.078308,0.896149 -3.132019,1.26001c-1.03067,0.355896 -2.038055,0.681305 -3.951996,1.119995c-0.866577,0.198608 -1.683105,0.338196 -2.447998,0.415497c-0.713043,0.072083 -1.387268,0.088837 -2.015991,0.028503c-0.597443,-0.057343 -1.188965,-0.135132 -2.202667,-0.610687c-0.509033,-0.2388 -0.977478,-0.582611 -1.423523,-0.97049c-0.463043,-0.402679 -0.899994,-0.874451 -1.324493,-1.393494c-0.445251,-0.544434 -0.8862,-1.138641 -1.751984,-2.46933c-0.464355,-0.713684 -0.924042,-1.475403 -1.3815,-2.279999c-0.474915,-0.835297 -0.941895,-1.714661 -1.390503,-2.640015c-0.462799,-0.95459 -0.935089,-1.943512 -1.727997,-4.079987c-0.412415,-1.111237 -0.772827,-2.27066 -1.105499,-3.462006c-0.338272,-1.211395 -0.637665,-2.451721 -0.898514,-3.71402c-0.262955,-1.272491 -0.514313,-2.557007 -0.82933,-5.157318c-0.15715,-1.29718 -0.254501,-2.596619 -0.324005,-3.890991c-0.069107,-1.287109 -0.101685,-2.567261 -0.108002,-3.837006c-0.006256,-1.25766 0.003418,-2.501984 0.098679,-4.93866c0.04657,-1.19104 0.11438,-2.365967 0.203995,-3.528015c0.089096,-1.155334 0.202118,-2.30661 0.348007,-3.455994c0.146744,-1.156067 0.302811,-2.32431 0.781326,-4.682678c0.246429,-1.214539 0.550049,-2.44754 0.880493,-3.707977c0.340027,-1.297028 0.718689,-2.626801 1.123505,-3.996002c0.418701,-1.416199 0.867706,-2.878265 1.829346,-5.962677c0.507782,-1.628662 1.034882,-3.305267 1.571991,-5.020508c0.545532,-1.742096 1.095642,-3.500031 1.644012,-5.263489c0.546295,-1.756866 1.089417,-3.49527 2.11731,-6.88266c0.493622,-1.626709 0.968872,-3.219574 1.419006,-4.796997c0.448547,-1.57193 0.881805,-3.158997 1.292999,-4.779022c0.421692,-1.661316 0.849365,-3.382782 1.621338,-7.090668c0.416229,-1.999268 0.805939,-4.099792 1.19101,-6.281982c0.396545,-2.247131 0.775116,-4.55011 1.136993,-6.894012c0.365509,-2.367462 0.724945,-4.746216 1.338654,-9.490662c0.301819,-2.333374 0.568024,-4.637939 0.814514,-6.910492c0.242767,-2.238129 0.46167,-4.443176 0.661499,-6.613495c0.196411,-2.133362 0.380676,-4.229797 0.690674,-8.309357c0.150482,-1.980438 0.284241,-3.926392 0.404999,-5.842499c0.119171,-1.890594 0.224762,-3.761414 0.315002,-5.617493c0.089722,-1.845612 0.174438,-3.686249 0.279999,-7.373322c0.053101,-1.85434 0.084198,-3.716064 0.127502,-5.581512c0.043335,-1.866547 0.091492,-3.731415 0.172485,-5.590485c0.080688,-1.851959 0.148376,-3.697723 0.533325,-7.328003c0.190094,-1.792786 0.458984,-3.557892 0.748505,-5.296509c0.285339,-1.71344 0.603058,-3.391479 0.919495,-5.035492c0.309296,-1.606995 0.641785,-3.167145 1.165344,-6.167999c0.248199,-1.422485 0.451019,-2.796204 0.623993,-4.115997c0.165344,-1.261627 0.292664,-2.467346 0.40802,-3.612015l0.097321,-1.082672l0.081329,-1.018661" id="svg_2" stroke-width="5" stroke="#000000" fill="none"/>
  <path d="m191,167c-1.041672,0.020828 -2.018021,0.119781 -2.636002,0.384171c-0.882675,0.377625 -1.23027,0.649612 -2.697327,1.615829c-0.641312,0.422363 -1.340424,0.904129 -2.087997,1.425003c-0.783188,0.545685 -1.581482,1.112823 -2.376007,1.694992c-0.784119,0.574554 -1.550095,1.122742 -2.869339,2.213333c-0.570923,0.47197 -1.068359,0.92778 -1.502991,1.37851c-0.415817,0.431213 -0.79628,0.88649 -1.161011,1.369492c-0.38446,0.509125 -0.773178,1.079651 -1.669327,2.418671c-0.529831,0.791672 -1.1073,1.660919 -1.725006,2.591995c-0.648987,0.978226 -1.318039,1.990433 -1.994995,3.024002c-0.679703,1.037766 -1.355316,2.063828 -2.613327,4.050674c-0.584702,0.923462 -1.128601,1.806015 -1.638,2.651993c-0.487808,0.81012 -0.948395,1.596252 -1.386002,2.363998c-0.427658,0.750305 -0.843872,1.492477 -1.64267,2.984009c-0.403137,0.752747 -0.800049,1.515274 -1.195496,2.281494c-0.395233,0.765778 -0.78447,1.530609 -1.168503,2.290497c-0.379608,0.751114 -0.750656,1.49202 -1.46933,2.928009c-0.345322,0.690002 -0.680161,1.361298 -1.014008,2.009995c-0.324875,0.631271 -0.647552,1.242859 -0.977997,1.830002c-0.322372,0.572815 -0.635117,1.135834 -1.341339,2.160004c-0.343719,0.498459 -0.71431,0.968689 -1.095001,1.423492c-0.379395,0.453247 -0.776855,0.891953 -1.184998,1.324509c-0.41185,0.436478 -0.838837,0.869156 -1.720001,1.751999c-0.454727,0.455597 -0.921265,0.921432 -1.403992,1.394989c-0.495895,0.486465 -1.010071,0.982773 -1.548004,1.485001c-0.554672,0.517853 -1.128021,1.052383 -2.381332,2.12001c-0.659622,0.56189 -1.358902,1.125717 -2.089493,1.703995c-0.758667,0.60051 -1.555054,1.214355 -2.386505,1.848007c-0.864822,0.659088 -1.769073,1.339005 -3.690674,2.781326c-1.017685,0.763855 -2.063919,1.547668 -3.12149,2.348999c-1.061111,0.804001 -2.11055,1.605637 -3.130508,2.403c-0.98764,0.772095 -1.938873,1.50148 -3.581329,2.914673c-0.715622,0.615738 -1.340645,1.200607 -1.889999,1.751999c-0.503456,0.505325 -0.948669,0.993393 -1.349998,1.463989c-0.381798,0.447693 -0.733429,0.895935 -1.426666,1.784012c-0.354881,0.454636 -0.717499,0.918259 -1.0905,1.386002c-0.377663,0.473602 -0.761986,0.948715 -1.153503,1.421997c-0.392151,0.474045 -0.783607,0.947525 -1.589333,1.858658c-0.396385,0.448242 -0.797714,0.882217 -1.195503,1.309509c-0.392891,0.422028 -0.784271,0.83577 -1.168495,1.24649c-0.37944,0.405609 -0.75853,0.802353 -1.469337,1.610672c-0.349052,0.396942 -0.684929,0.799789 -1.009499,1.209c-0.324791,0.409485 -0.64045,0.829727 -0.946495,1.263c-0.310371,0.439392 -0.622169,0.890762 -1.21067,1.861328c-0.306404,0.50531 -0.6092,1.028381 -1.178665,2.11734c-0.285652,0.546249 -0.558258,1.094543 -0.806999,1.643997c-0.706528,1.560669 -0.896393,2.054108 -1.195503,2.995514c-0.280159,0.881744 -0.464478,1.756042 -0.53083,2.192474c-0.202736,1.333496 -0.238693,2.265228 -0.267166,3.196503c-0.014046,0.459412 -0.026154,1.351501 -0.020668,2.577667c0.004745,1.060547 -0.055603,1.700745 0.166496,2.77652c0.19175,0.928802 0.716278,1.501617 1.397339,2.181335c0.565826,0.564697 1.20977,1.004181 2.088661,1.337982c0.705421,0.267914 1.737282,0.567352 2.514,0.813995c0.697098,0.221375 1.513649,0.651001 2.522667,1.034668c0.575195,0.218719 1.228905,0.435944 1.968002,0.684021c1.30558,0.438232 2.292343,0.76535 2.797333,0.940002c0.998695,0.345398 1.490326,0.47995 2.711998,1.007996c0.888138,0.383881 1.586868,0.812103 2.138672,1.050659c1.105843,0.478088 1.596184,0.606628 2.64666,0.930664c0.546738,0.16864 1.630798,0.47995 2.143997,0.615997c1.274277,0.337769 2.2258,0.524689 2.908005,0.619995c0.896271,0.125244 2.162842,0.281464 2.973495,0.392181c0.916016,0.125122 1.911926,0.265228 2.962509,0.418488c1.081085,0.157715 2.16716,0.320953 3.232498,0.490509c1.021301,0.162567 2.828522,0.476379 3.571838,0.626648c0.65126,0.131683 1.232391,0.265564 1.772995,0.385529c0.524078,0.116302 1.057526,0.231689 1.628998,0.331482c0.631149,0.110229 2.186432,0.310059 3.154007,0.40451c1.088394,0.106262 2.281799,0.202484 3.560989,0.299988c1.346802,0.102661 2.743973,0.2005 4.173004,0.300018c1.442978,0.100464 4.299057,0.299133 5.679504,0.399811c1.343552,0.097992 2.652924,0.196686 3.931503,0.28952c1.250412,0.09079 2.475815,0.177551 3.679489,0.253479c1.184326,0.074707 3.508331,0.194885 4.653671,0.235687c1.136017,0.040466 2.264282,0.067291 3.385498,0.08548c1.115128,0.018097 2.225342,0.026855 3.331497,0.031525c1.103165,0.004669 3.304504,0.005463 4.404831,0.00415c1.102341,-0.001343 2.208725,-0.00473 3.321014,-0.020996c1.120392,-0.016357 2.250916,-0.044006 3.39299,-0.092987c1.156647,-0.049591 3.519775,-0.210754 4.72934,-0.328857c1.233185,-0.120392 2.489441,-0.269684 3.770996,-0.439484c1.311157,-0.173737 2.651245,-0.370941 4.022995,-0.583496c1.406937,-0.218018 4.329498,-0.697601 5.847168,-0.955688c1.547668,-0.263184 3.113678,-0.53717 4.684509,-0.83548c1.569534,-0.298065 3.124069,-0.613129 4.648499,-0.961517c1.492935,-0.341217 4.321487,-1.095734 5.631165,-1.524323c1.255676,-0.410919 2.444412,-0.858795 3.567001,-1.339508c1.082733,-0.463654 2.108765,-0.960602 3.080994,-1.48349c0.945084,-0.508301 2.70929,-1.591156 3.53833,-2.155182c0.813614,-0.553558 1.593262,-1.125305 2.346008,-1.703979c0.739899,-0.568787 1.452957,-1.146576 2.147995,-1.722015c0.683594,-0.565948 2.003647,-1.686432 2.64917,-2.231171c0.635818,-0.53656 1.264099,-1.064606 1.885498,-1.58548c0.614944,-0.515442 1.225204,-1.025482 1.831497,-1.531525c0.603027,-0.503296 1.804459,-1.504547 2.404343,-2.004333c0.598785,-0.498871 1.195511,-0.99585 1.789505,-1.489471c0.589661,-0.490021 1.174347,-0.975037 1.753479,-1.453522c0.571533,-0.472198 1.690033,-1.391113 2.235352,-1.835327c0.533325,-0.434448 1.054962,-0.856537 1.564484,-1.264496c0.494171,-0.395691 0.973755,-0.775818 1.438507,-1.138489c0.445953,-0.347992 1.28421,-0.987244 1.675507,-1.275513c0.368774,-0.271667 0.718475,-0.522202 1.049988,-0.75c0.308594,-0.212067 0.598206,-0.402924 0.869995,-0.570007c0.248383,-0.152679 0.688202,-0.39389 0.880341,-0.480499c0.170807,-0.076996 0.328033,-0.134918 0.471008,-0.181488c0.129791,-0.042267 0.251068,-0.074661 0.363007,-0.109512c0.10672,-0.033234 0.310547,-0.115768 0.409149,-0.173157c0.102844,-0.05986 0.204163,-0.131577 0.310516,-0.20401c0.109985,-0.074921 0.223602,-0.152283 0.346497,-0.222c0.126465,-0.071747 0.408142,-0.190811 0.564484,-0.231323c0.163757,-0.042435 0.339752,-0.070282 0.525024,-0.096008c0.194733,-0.027039 0.400146,-0.049393 0.61499,-0.078003c0.225189,-0.029999 0.705719,-0.110641 0.959656,-0.168823c0.263489,-0.060364 0.532074,-0.133209 0.804016,-0.214508c0.275421,-0.082336 0.550018,-0.172699 0.821991,-0.268494c0.269379,-0.094879 0.78656,-0.294144 1.031006,-0.39534c0.235535,-0.097519 0.459991,-0.195663 0.674988,-0.28949l0.205017,-0.089844l0.380005,-0.163666" id="svg_4" stroke-width="5" stroke="#000000" fill="none"/>
  <path d="m119,273c0.963997,1.84668 1.006516,2.686707 0.998665,3.691986c-0.004669,0.597412 -0.051086,1.698669 -0.084,2.136017c-0.118881,1.579712 -0.197464,2.189453 -0.267334,2.826324c-0.071434,0.651123 -0.222008,1.946991 -0.294662,2.567993c-0.06868,0.587006 -0.257599,2.025238 -0.316666,2.93634c-0.065254,1.006531 -0.036003,1.841339 -0.036003,2.819824c0,0.82019 -0.00074,1.721527 0,2.657501c0.000671,0.84668 -0.069366,1.761017 0.583336,2.40567c0.78936,0.779633 1.475075,1.091553 2.103333,1.681c0.336914,0.316101 1.010826,0.982697 1.979996,1.944c0.573677,0.569031 1.144409,1.1203 1.836006,1.656006c0.39566,0.306488 0.853012,0.631256 1.99733,1.343994c0.687317,0.428101 1.461609,0.874908 2.300995,1.348511c0.888489,0.501312 1.82164,1.010132 2.787003,1.519501c0.978622,0.516357 1.958893,1.033539 3.912003,1.965332c0.931412,0.444366 1.842331,0.849731 2.733002,1.223999c0.866791,0.364227 1.722748,0.699677 2.570999,1.007996c0.837173,0.304291 1.671783,0.596954 3.362671,1.101349c0.852295,0.254242 1.718521,0.48584 2.595001,0.704987c0.88353,0.220917 1.778778,0.425751 2.684998,0.61499c0.913803,0.190826 1.837189,0.376984 3.720001,0.680023c0.954315,0.153595 1.924561,0.286163 2.912994,0.404999c1.008942,0.121307 2.0448,0.226288 3.111008,0.315002c1.099136,0.091461 2.236526,0.177307 4.642654,0.279999c1.272491,0.054321 2.582596,0.08493 3.916504,0.109497c1.344772,0.02478 2.687653,0.038239 4.015503,0.046478c1.29982,0.008057 2.55867,0.01001 4.901337,0.010681c1.060822,0.000305 2.046661,0 2.962494,0c0.85083,0 1.641663,0 2.377502,0c0.685837,0 1.32666,0.000366 2.493332,0c0.537506,-0.000183 1.060043,0.000153 1.582504,-0.009003c0.537552,-0.00943 1.105209,-0.028564 1.717499,-0.062988c0.672775,-0.037842 1.421021,-0.08786 3.199997,-0.261353c1.058472,-0.103241 2.222931,-0.235107 3.481506,-0.380981c1.340103,-0.155304 2.747833,-0.325989 4.210495,-0.507019c1.505005,-0.186279 3.038986,-0.378845 6.141327,-0.778656c1.544998,-0.199127 3.079193,-0.398834 4.60051,-0.609009c1.509369,-0.208496 3.004791,-0.425507 4.48349,-0.662994c1.464981,-0.235291 2.917511,-0.465179 5.749344,-1.06134c1.392883,-0.293243 2.757446,-0.626709 4.091995,-0.980988c1.308136,-0.34726 2.57785,-0.717163 3.804001,-1.106995c1.188492,-0.377838 2.335083,-0.749146 4.437332,-1.578674c0.977676,-0.385773 1.898514,-0.794434 2.774994,-1.217987c0.856873,-0.414093 1.688431,-0.856384 2.505005,-1.326019c0.826935,-0.475616 1.66304,-0.982513 3.386673,-2.12265c0.924103,-0.611267 1.873352,-1.269531 2.848495,-1.95752c0.999603,-0.705261 2.008392,-1.434631 3.019501,-2.182495c1.014572,-0.750427 2.024353,-1.500916 3.965332,-3.026672c0.939896,-0.738831 1.843658,-1.475861 2.719498,-2.2005c0.853439,-0.706116 1.677444,-1.402344 2.476517,-2.083496c0.777252,-0.662537 1.528015,-1.312195 2.970642,-2.549316c0.68924,-0.591064 1.360168,-1.16098 2.005524,-1.719025c0.625244,-0.540649 1.227661,-1.068268 1.798492,-1.592987c0.552734,-0.508118 1.094116,-0.996765 2.029327,-2.021332c0.44693,-0.489624 0.849976,-0.99408 1.228485,-1.495514c0.369415,-0.48941 0.711792,-0.98175 1.03952,-1.468475c0.321198,-0.47702 0.622864,-0.954071 1.231995,-1.869354c0.29715,-0.446503 0.596252,-0.879395 0.890991,-1.300476c0.286652,-0.409576 0.567352,-0.80368 0.837006,-1.183502l0.25766,-0.363831l0.243683,-0.346863" id="svg_5" stroke-width="5" stroke="#000000" fill="none"/>
  <path d="m131,278c0.705338,2.005341 1.032913,2.481537 1.432007,3.231995c0.505325,0.950195 0.651627,1.694794 1.010666,2.753326c0.247787,0.73056 0.563248,1.512482 0.85199,2.304016c0.379822,1.041199 0.527832,1.816589 0.873337,2.675995c0.334976,0.833191 0.848541,1.554352 1.240997,2.029327c0.745285,0.902008 1.564911,1.509125 2.19101,1.717346c0.97522,0.324341 1.903763,0.194763 2.821487,-0.376343c0.568954,-0.354065 1.09729,-0.879669 1.683014,-1.391998c0.89238,-0.780579 1.510544,-1.25882 2.148819,-1.792999c0.736526,-0.616394 1.140335,-0.995605 1.573334,-1.432007c1.025543,-1.0336 1.583023,-1.686066 2.190674,-2.388c0.640549,-0.739929 1.288467,-1.511597 1.940994,-2.289001c0.643463,-0.766602 1.259293,-1.51001 1.850998,-2.198975c1.015961,-1.182983 1.428177,-1.639496 1.796005,-1.981354c0.294006,-0.273254 1.245071,-0.524109 1.938339,0.468353c0.25882,0.370514 0.770386,1.329315 1.081329,1.878662c0.339661,0.600067 0.70697,1.250671 1.119003,1.940979c0.910172,1.524872 1.436798,2.337769 1.989334,3.17868c0.564056,0.858459 1.142929,1.711914 1.724991,2.546997c0.564728,0.810211 1.109253,1.576813 1.63501,2.277008c0.894165,1.190826 1.26947,1.640533 1.595993,1.994659c0.265518,0.287964 0.683823,0.832397 1.632996,0.852173c0.81543,0.016998 1.403381,-0.348724 2.511002,-1.165497c0.489792,-0.361176 0.988419,-0.817902 1.525513,-1.302002c0.560394,-0.505096 1.120224,-1.031464 1.678497,-1.554016c1.057129,-0.989532 1.93071,-1.851685 2.649323,-2.378662c0.641174,-0.470184 1.28421,-0.1008 1.653336,0.544006c0.498642,0.871063 1.071091,1.566681 1.372009,1.947998c0.614426,0.778595 1.167145,1.562225 2.023499,2.301819c0.653748,0.564606 1.685394,0.784637 2.578003,0.589508c0.791153,-0.172943 1.460556,-0.856689 2.044495,-1.401672c0.653488,-0.609894 1.290543,-1.278046 1.589996,-1.61499c0.806107,-0.907013 1.35611,-1.739136 1.967163,-2.470673c0.716858,-0.858185 1.055801,-1.153259 1.795502,-1.786499c0.774673,-0.663177 1.150055,-1.008392 1.953339,-1.484161c1.148224,-0.680054 1.991348,-0.464539 2.50267,0.442657c0.363129,0.644257 0.650986,1.427521 1.007996,2.196014c0.334183,0.71936 0.905884,1.963409 1.594666,1.940002c1.162231,-0.03952 1.853012,-0.938385 2.298508,-1.217834c0.470566,-0.295166 1.440781,-0.920624 1.925995,-1.231354c1.337524,-0.856567 2.07283,-1.298462 2.704834,-1.688141c0.605255,-0.373199 1.248001,-0.788391 2.386337,-1.65033c0.452652,-0.342743 0.915604,-0.718018 1.873322,-1.473358c0.467819,-0.368958 1.210709,-1.264862 2.313171,-1.712494c0.725693,-0.294647 1.373001,0.517883 2.015167,0.985504c0.692444,0.504242 1.569916,1.126373 2.296661,1.03949c0.773865,-0.092529 1.846909,-0.95871 2.324677,-1.278168c0.523422,-0.349976 1.078766,-0.730713 2.248001,-1.557312c0.600922,-0.424835 1.197388,-0.852753 2.343994,-1.685333c0.535645,-0.388947 1.037643,-0.761902 1.960007,-1.429352c0.797974,-0.577454 1.081375,-0.954498 2.275497,-1.539337c0.793686,-0.388702 1.721756,0.094543 1.964493,0.625671c0.532486,1.16507 0.606293,2.087158 0.721344,2.568329c0.244873,1.024078 0.329239,1.572205 0.911987,3.108002c0.18898,0.498047 0.662079,1.411438 0.917343,1.829346c0.480225,0.786224 0.900009,1.516205 1.779999,2.444c0.538101,0.567352 1.482437,0.440552 2.143997,-0.136017c0.690948,-0.602173 1.185333,-1.579437 2.026672,-1.714661c0.695389,-0.111755 1.460876,0.963348 1.777832,1.431519c0.472885,0.698486 0.870132,1.872009 1.354156,2.645813c0.443283,0.708679 0.872284,1.553802 1.945511,1.678497c0.623886,0.072479 1.214798,-0.601685 2.054489,-1.345154c0.545471,-0.482971 1.139984,-1.054626 1.78801,-1.674011c0.682724,-0.652557 1.377991,-1.326691 2.075989,-1.997986c0.680695,-0.654663 1.316589,-1.287384 2.469345,-2.328003c0.456009,-0.411652 0.736603,-1.280884 1.6875,-1.1875c1.059235,0.104004 1.134109,1.390625 1.293991,1.808014c0.343124,0.895782 0.662476,1.814545 1.018509,3.046143c0.172638,0.597198 0.323471,0.825958 0.343994,0.074677c0.017014,-0.622955 0.13678,-1.912506 0.341995,-2.744995c0.203094,-0.823883 0.404343,-1.429932 0.525833,-2.581665c0.097305,-0.922485 0.093353,-1.415833 0.11084,-2.41333c0.016922,-0.96524 -0.014557,-2.217499 0.028671,-2.899689c0.040894,-0.645325 0.171143,-1.340942 0.648651,-2.601654c0.202148,-0.533722 0.739166,-1.695862 1.034668,-2.298676c0.293884,-0.599548 0.518768,-1.217926 1.162689,-2.170654c0.712311,-1.053955 1.126984,-0.438446 1.135986,0.547333c0.00766,0.838623 0.036011,1.217987 0.285339,0.144653l0.150665,-0.548004l0.174652,-0.675995l0.190674,-0.828003" id="svg_6" stroke-width="5" stroke="#000000" fill="none"/>
  <path d="m137,302c0.352661,-2.005341 0.605698,-2.74115 0.833328,-3.666656c0.222595,-0.905029 0.603271,-1.75354 1.053345,-2.218689c0.762787,-0.78833 1.382339,-1.343079 1.88533,-1.715973c0.848541,-0.629089 1.51738,-1.011841 2.541336,-1.526672c0.626617,-0.315033 1.863281,-1.161255 2.519989,-0.538666c0.528076,0.50061 0.301086,1.678223 0.613342,2.498657c0.285904,0.751221 0.71373,1.670715 1.039993,2.417328c0.353226,0.808319 0.728882,1.622284 0.975006,1.978333c0.858322,1.241699 1.50679,1.55072 2.16333,1.605682c0.763153,0.063904 2.209961,-0.327759 2.782501,-0.497681c0.621002,-0.184296 1.279022,-0.400574 1.972504,-0.632996c1.474808,-0.494263 2.241135,-0.763092 3.026657,-1.021332c1.590637,-0.522949 2.388779,-0.770386 3.184006,-0.981323c0.774719,-0.205475 1.531174,-0.375336 2.263504,-0.450012c0.691605,-0.070526 1.376541,-0.128326 1.948502,0.089996c1.589935,0.606873 1.830551,1.376678 2.106155,1.961823c0.290573,0.616913 0.496506,1.299652 0.688507,1.999512c0.383041,1.39624 0.702469,2.712189 0.946335,3.268494c0.430954,0.983063 0.682281,1.45929 1.421661,1.914185c0.71405,0.439301 2.227768,0.287811 2.778671,0.113312c0.602081,-0.190704 1.228989,-0.477264 1.880997,-0.826477c0.698227,-0.373962 1.416977,-0.816711 2.151001,-1.321503c1.578644,-1.085632 2.369537,-1.729126 3.184006,-2.380005c0.822266,-0.657104 1.627945,-1.326477 2.414993,-1.985992c0.759583,-0.636505 1.473755,-1.247498 2.145004,-1.806c1.141739,-0.949951 1.599808,-1.316406 1.998657,-1.588013c0.322037,-0.219299 0.802261,-0.641296 1.64801,0.144012c0.490448,0.455414 0.699844,1.312714 1.332001,1.931976c0.336411,0.329559 1.832184,0.940735 2.473831,0.961182c0.714111,0.022766 1.505692,-0.093475 2.347504,-0.310516c0.918411,-0.236786 1.885193,-0.598969 2.887497,-1.066498c1.072586,-0.500336 3.306076,-1.829895 4.455658,-2.641663c1.196655,-0.845001 2.380524,-1.776306 3.559509,-2.74649c1.181427,-0.972198 2.324493,-1.965759 3.433502,-2.944489c1.068207,-0.942719 3.007523,-2.68689 3.871155,-3.443848c0.781982,-0.685425 1.492081,-1.295105 2.141998,-1.820984c0.576065,-0.466125 1.093323,-0.862518 1.56601,-1.173004c0.406036,-0.266693 1.092712,-0.604858 1.378494,-0.649841c0.241043,-0.037933 0.464386,-0.003479 0.6315,0.097504c0.164291,0.099274 0.287994,0.267059 0.379501,0.457489c0.097717,0.203339 0.212616,0.681793 0.253998,0.9375c0.04277,0.264343 0.062149,0.541412 0.141998,1.119995c0.130783,0.947632 0.394455,1.99115 0.702499,2.715515c0.330399,0.776947 0.537781,1.173981 1.050003,1.944153c0.819656,1.232391 1.15419,1.635162 1.909332,2.324005c0.734283,0.66983 1.127792,1.108215 2.484009,1.308014c0.903961,0.133179 1.372498,-0.119995 2.270828,-0.416687l0.838333,-0.376648l1.057495,-0.540009l0.738007,-0.324005" id="svg_7" stroke-width="5" stroke="#000000" fill="none"/>
  <path d="m222,177c-2.952667,0 -3.5,-0.00148 -4.315994,0c-1.23584,0.002258 -1.950607,-0.001678 -3.017334,0.166672c-0.642639,0.101425 -1.363266,0.275635 -2.124008,0.587997c-0.848099,0.348236 -1.730621,0.884064 -2.623993,1.58667c-0.474091,0.372864 -0.945251,0.780624 -1.821335,1.701324c-0.442001,0.464508 -0.903549,0.920135 -1.932831,2.45784c-0.328461,0.490707 -0.620422,1.000122 -1.102005,2.061996c-0.244598,0.539322 -0.478516,1.09935 -1.0625,2.9375c-0.210175,0.661545 -0.403305,1.356781 -0.586502,2.080505c-0.189072,0.746948 -0.361649,1.521683 -0.505493,2.323502c-0.147446,0.82193 -0.29686,1.667252 -0.408005,3.429321c-0.057343,0.909012 -0.054718,1.842499 0.007507,2.79451c0.063904,0.977844 0.195984,1.981445 0.412491,3.001495c0.224365,1.057129 0.48642,2.161316 1.41333,4.370667c0.495743,1.181625 1.126236,2.35408 1.806,3.531006c0.688171,1.191483 1.431305,2.352585 2.202011,3.47699c0.753677,1.099548 1.495117,2.154297 2.991989,3.992004c0.66626,0.817963 1.313889,1.539093 1.938004,2.171997c0.574326,0.582397 1.134781,1.091125 1.686005,1.524002c0.515091,0.404495 1.016907,0.773758 2.042664,1.304001c0.491577,0.254105 1.001862,0.455139 1.518005,0.632996c0.521332,0.179642 1.063919,0.330872 1.625992,0.471008c0.583267,0.145416 1.19725,0.277756 2.522675,0.562668c0.719788,0.154724 1.478043,0.319061 2.275497,0.481491c0.833191,0.169708 1.70253,0.33757 2.60849,0.490509c0.937714,0.158295 1.907318,0.32309 3.949341,0.528c1.061508,0.106522 2.143661,0.169525 3.231003,0.218994c1.080704,0.049164 2.143936,0.076401 3.177002,0.093002c0.990952,0.015915 1.927994,0.020981 3.591995,0.021332c0.706161,0.000153 1.329697,0.003021 1.876495,-0.022507c0.478638,-0.022354 0.899475,-0.060318 1.255508,-0.157486c0.318893,-0.087021 0.634857,-0.197891 1.034668,-0.653336c0.220551,-0.251236 0.375839,-0.593399 0.518997,-0.970505c0.156998,-0.413574 0.280762,-0.881821 0.393005,-1.393494c0.121094,-0.551987 0.228317,-1.149231 0.421326,-2.469345c0.105103,-0.718918 0.202057,-1.476913 0.295502,-2.270996c0.097351,-0.827255 0.187836,-1.686951 0.268494,-2.576996c0.08313,-0.917282 0.166443,-1.860458 0.269333,-3.818665c0.052963,-1.008102 0.085144,-2.027878 0.10051,-3.0495c0.015259,-1.014435 0.012299,-2.013214 -0.01651,-2.986511c-0.027817,-0.939789 -0.046051,-1.840866 -0.250656,-3.463989c-0.090576,-0.718506 -0.223312,-1.370255 -0.381012,-1.957504c-0.144852,-0.539429 -0.316177,-1.026382 -0.506989,-1.462494c-0.177414,-0.405472 -0.364456,-0.777359 -0.778671,-1.413345c-0.19278,-0.296005 -0.390335,-0.578079 -0.832001,-1.093323c-0.462021,-0.538986 -1.021912,-1.095428 -2.032501,-2.104172c-0.390686,-0.389969 -0.80072,-0.804901 -1.697998,-1.656662c-0.466263,-0.442612 -0.942642,-0.887985 -1.441498,-1.3125c-1.471725,-1.252411 -1.989502,-1.602051 -2.491501,-1.947845c-0.973846,-0.670807 -1.464966,-0.967377 -1.947342,-1.252655c-1.380585,-0.816483 -2.271179,-1.280899 -2.695496,-1.513504c-0.821335,-0.450226 -1.621155,-0.873886 -2.694992,-1.619339c-0.352066,-0.2444 -1.01088,-0.769928 -1.604172,-1.3125c-0.804871,-0.736069 -1.518936,-1.64798 -2.17717,-2.063492c-0.800644,-0.505402 -1.595993,-0.446671 -2.585159,-0.457336l-0.779343,0l-0.999329,0l-0.82016,0" id="svg_8" stroke-width="5" stroke="#000000" fill="none"/>
  <path d="m259,180c-1.5,6.333328 -1.769989,8.183167 -2.049347,10.29866c-0.30658,2.321777 -0.612488,4.796494 -0.908997,7.368011c-0.300934,2.609833 -0.587372,5.203598 -0.818985,7.727997c-0.422272,4.602432 -0.533539,6.587753 -0.594666,8.350662c-0.054077,1.559677 -0.056656,2.938034 -0.003006,4.150497c0.047302,1.069061 0.131042,2.01387 0.266998,2.845505c0.234177,1.432541 0.420227,2.053467 0.591995,2.629333c0.160202,0.537094 0.335098,1.030441 0.516006,1.483505c0.168854,0.422867 0.343872,0.810623 0.515991,1.168488c0.311157,0.647018 0.460205,0.935379 0.601349,1.20401c0.13205,0.251297 0.261383,0.484421 0.403503,0.690002c0.134369,0.194382 0.276733,0.374237 0.448486,0.509995c0.342072,0.270355 0.571716,0.340698 0.809326,0.402664c0.259949,0.067795 0.556854,0.104736 0.888,0.128998c0.370239,0.02713 0.785309,0.035263 1.248016,0.039001c1.085297,0.008759 1.714325,0.00412 2.397339,0c0.730988,-0.00441 1.50412,-0.014206 2.312988,-0.039001c0.839142,-0.025711 1.70282,-0.060928 2.583008,-0.128998c1.794006,-0.138748 2.693329,-0.262741 3.590668,-0.402664c0.898407,-0.140091 1.792847,-0.309921 2.680481,-0.509995c0.887177,-0.199966 1.76828,-0.424469 2.635498,-0.690002c1.728424,-0.529221 2.566315,-0.860626 3.391998,-1.194672c0.812683,-0.328781 1.596588,-0.675751 2.347504,-1.031998c0.722351,-0.342712 1.403351,-0.68544 2.032501,-1.031998c1.122498,-0.618317 1.591034,-0.916061 2.001343,-1.203995c0.375305,-0.263382 0.70752,-0.53389 0.987,-0.826508c0.272644,-0.285477 0.514862,-0.604233 0.71701,-0.961502c0.44632,-0.788849 0.615295,-1.280487 0.805328,-1.801331c0.201813,-0.553101 0.388458,-1.141953 0.561005,-1.757996c0.177002,-0.631989 0.339355,-1.27948 0.470978,-1.938004c0.261322,-1.307434 0.335327,-1.956512 0.400024,-2.594666c0.063934,-0.630615 0.103668,-1.258438 0.128998,-1.884003c0.02533,-0.625153 0.035187,-1.252655 0.039001,-1.884003c0.007782,-1.282654 0.004272,-1.937851 0,-2.604004c-0.004364,-0.678177 -0.014008,-1.369476 -0.039001,-2.074493c-0.025543,-0.720352 -0.061676,-1.45723 -0.128998,-2.209503c-0.139893,-1.563538 -0.262726,-2.371841 -0.404022,-3.192001c-0.142944,-0.829666 -0.315674,-1.658112 -0.52948,-2.473495c-0.211731,-0.80748 -0.447144,-1.597107 -0.754517,-2.338501c-0.586487,-1.414673 -0.987518,-2.029129 -1.397339,-2.595993c-0.398102,-0.550674 -0.840607,-1.048737 -1.306488,-1.503006c-0.458588,-0.447159 -0.929962,-0.874008 -2.4375,-1.958328c-0.492645,-0.354324 -0.99173,-0.683167 -1.957336,-1.309341c-0.457947,-0.296967 -1.325378,-0.821182 -2.376007,-1.524002c-0.750824,-0.502258 -1.38623,-1.031036 -2.328308,-1.285156c-0.787323,-0.212372 -1.769562,-0.472061 -2.28653,-0.758011c-0.80722,-0.446487 -1.700928,-1.146606 -2.379822,-1.643494c-0.753448,-0.551468 -1.671997,-0.646667 -2.429169,-0.646667c-0.895508,0 -1.75882,0 -2.721985,0l-0.920837,0" id="svg_9" stroke-width="5" stroke="#000000" fill="none"/>
  <path d="m230,148c0.520828,1.541672 1.094894,2.547104 1.331497,3.045837c0.306259,0.645554 0.759262,1.469162 1.065842,1.954163c0.746689,1.18129 1.247864,1.85437 1.801331,2.595993c0.600113,0.804108 1.259293,1.649109 1.968002,2.529007c0.739105,0.917618 1.514664,1.855606 2.327988,2.798996c1.657181,1.922211 2.521774,2.858063 3.386673,3.785339c0.857834,0.919708 1.718903,1.815689 2.576996,2.686493c0.840668,0.853134 1.669815,1.676025 2.487,2.461502c1.545547,1.48555 2.286957,2.15863 2.992004,2.796005c0.666428,0.602478 1.300003,1.16153 1.895996,1.679993c0.553436,0.48143 1.067261,0.92009 1.536011,1.320007c0.797211,0.680145 1.124374,0.959106 1.402664,1.205338c0.238846,0.211334 0.440033,0.394577 0.602997,0.557999c0.137985,0.138367 0.251846,0.260559 0.332993,0.377991c0.136749,0.197922 -0.26535,0.744659 0.514511,1.082336c0.587463,0.254364 1.108765,-0.629883 1.777496,-1.376999c0.933563,-1.042984 1.433167,-1.702606 1.984009,-2.402664c0.582367,-0.740128 1.176056,-1.518326 1.771484,-2.323502c0.600586,-0.812149 1.749023,-2.437454 2.280334,-3.230835c0.515228,-0.769409 1.002502,-1.528137 1.477509,-2.270996c0.466644,-0.729813 0.923523,-1.452698 1.387512,-2.16301c0.462708,-0.708374 1.426697,-2.113251 1.94165,-2.808334c0.518372,-0.699661 1.054413,-1.385834 1.597504,-2.057999c0.535278,-0.662476 1.070679,-1.300934 1.597504,-1.914001c0.506592,-0.589523 1.460602,-1.663696 1.897675,-2.142166c0.404419,-0.442749 0.784332,-0.84433 1.135498,-1.210495l0.325165,-0.33017l0.300171,-0.295166l0.276154,-0.261169" id="svg_10" stroke-width="5" stroke="#000000" fill="none"/>
  <path d="m260,183c1.799988,0 2.600006,-0.035995 3.399994,-0.425339l0.800018,-0.489334l0.899811,-0.085327l0.900177,-0.020828" id="svg_11" stroke-width="5" stroke="#000000" fill="#7f3f00"/>
  <path d="m219,197c0.998672,0.886673 1,1.85733 1,2.518829c0,1.123672 0,1.781998 0,2.79451c0,0.633331 -0.134079,1.824478 0.000168,2.786499c0.111893,0.801773 1.173782,0.972458 1.846497,0.868164c0.859085,-0.133194 1.854065,-0.807556 2.389328,-1.286667c0.592361,-0.530228 1.175766,-1.161606 1.764008,-1.848007c0.606873,-0.708145 1.17598,-1.453049 1.4375,-1.833328c0.506683,-0.736786 1.135513,-1.811951 1.391006,-2.820328c0.196793,-0.776703 0.167633,-1.024918 0.000824,-0.402344c-0.32486,1.212448 -0.683975,1.871643 -0.978668,2.572006c-0.28656,0.681046 -0.700012,1.877869 -0.829834,2.629837c-0.120972,0.700699 -0.070313,1.805923 -0.59549,2.651489c-0.266754,0.429489 -0.334396,-0.288132 -0.09201,-1.297333c0.210587,-0.876801 0.518784,-1.844894 0.666672,-2.354156c0.297592,-1.024826 0.479141,-1.518295 0.757004,-2.914337c0.155151,-0.779526 0.368317,-1.466171 0.242996,-2.731506c-0.077744,-0.784958 -1.114151,-0.561783 -1.767838,-0.213669c-0.761887,0.405746 -1.150879,0.636032 -1.897491,1.115005c-1.211716,0.777359 -1.834534,1.297989 -2.300003,1.989334c-0.63652,0.945404 -0.804657,1.394943 -1.285339,2.302673c-0.250366,0.472778 -0.719482,1.423691 -1.416,2.639999c-0.349182,0.609772 -1.033447,1.379425 -1.333328,0.770828c-0.420868,-0.854141 -0.611557,-1.749161 -0.460007,-2.537506c0.169067,-0.879517 1.027725,-1.414932 1.520844,-1.857162c0.780869,-0.700272 1.472992,-1.481995 1.876663,-1.980331l0.729172,-0.895828l0.333328,0.5l0,0.658661" id="svg_15" stroke-width="5" stroke="#bf0000" fill="none"/>
  <path d="m267,202c0.963989,1.835999 0.97229,2.601837 1.004486,3.608994c0.028961,0.906403 0.141754,1.728577 0.352692,2.691833c0.149292,0.681656 0.39212,1.668137 0.842834,2.648514c0.269592,0.586426 0.810822,1.714188 1,2.38533c0.212158,0.75267 0.348907,1.544281 0.599976,2.244003c0.421021,1.173401 1.093414,1.478912 2.02536,1.846664c0.697021,0.27504 1.717224,0.878693 2.574646,0.542664c0.87851,-0.344299 1.019684,-1.279984 1.300018,-2.138672c0.322815,-0.988831 0.502899,-1.713898 0.699982,-2.465332c0.202972,-0.77388 0.401642,-1.564926 0.699829,-2.763672c0.196777,-0.791046 0.393219,-1.555664 0.542999,-2.285995c0.259674,-1.266281 0.799316,-2.229095 0.190521,-2.981003c-0.391663,-0.483719 -1.504486,0.158264 -2.170685,0.520004c-0.78006,0.423553 -1.597137,0.906982 -2.009155,1.145828c-1.152985,0.668396 -2.078156,1.193817 -2.821503,1.579514c-0.827789,0.42952 -1.653931,0.758255 -2.261322,1.221329c-0.621155,0.473572 -0.570679,-0.341675 -0.570679,-1.034668c0,-1.104004 0,-1.932007 0,-2.723663c0,-0.213837 -0.039398,0.72728 0.020844,1.4375c0.087158,1.027496 0.870697,1.3022 1.088989,0.530502c0.237396,-0.839203 0.454895,-1.632492 0.751495,-2.547012c0.157074,-0.484283 0.485657,-1.458237 0.656006,-1.927994c0.579529,-1.598068 0.88028,-2.162857 1.196014,-3.044006c0.334412,-0.933228 0.912659,-1.319199 1.582153,-1.847824c0.740692,-0.584839 0.939209,-0.638947 1.129822,0.126495c0.160675,0.645279 0.424896,2.06218 0.489349,2.742661c0.087463,0.923615 0.084656,1.716003 0.085327,2.673676c0.000641,0.914337 -0.034363,1.815063 0,2.614334c0.036041,0.838318 0.579773,1.674255 1.149323,2.374664c0.528412,0.649811 0.841675,1.520828 0.850677,2.425339l0,0.899994" id="svg_16" stroke-width="5" stroke="#bf0000" fill="none"/>
  <path d="m151,-85c0.885498,-1.771332 1.141098,-2.27549 1.712006,-3.445335c0.310867,-0.637001 0.622665,-1.295998 0.934494,-1.961998l0.302841,-0.662003" id="svg_17" stroke-width="5" stroke="#bf0000" fill="none"/>
 </g>
</svg>